<?xml version="1.0" standalone="no"?>
<!DOCTYPE svg PUBLIC "-//W3C//DTD SVG 20010904//EN"
 "http://www.w3.org/TR/2001/REC-SVG-20010904/DTD/svg10.dtd">
<svg version="1.0" xmlns="http://www.w3.org/2000/svg"
 width="318.000000pt" height="318.000000pt" viewBox="0 0 318.000000 318.000000"
 preserveAspectRatio="xMidYMid meet">
<metadata>
Created by potrace 1.11, written by Peter Selinger 2001-2013
</metadata>
<g transform="translate(0.000000,318.000000) scale(0.100000,-0.100000)"
fill="#000000" stroke="none">
<path d="M1937 3161 c-2 -11 -34 -36 -71 -57 -36 -21 -69 -47 -72 -59 -4 -11
-12 -23 -18 -27 -6 -4 -11 -13 -11 -19 0 -19 -42 -30 -55 -14 -9 11 -6 20 14
40 21 21 26 35 24 67 -1 22 -8 42 -14 45 -7 2 -34 -10 -61 -29 -26 -18 -68
-41 -93 -52 -74 -30 -75 -31 -76 -72 -2 -58 -3 -59 -17 -41 -11 16 -15 15 -46
-17 -26 -27 -40 -34 -60 -30 -23 4 -28 -1 -44 -36 -22 -46 -64 -74 -102 -64
-25 6 -35 -8 -15 -21 16 -10 12 -38 -5 -31 -8 3 -16 2 -16 -2 -1 -4 -3 -16 -4
-27 -2 -11 -5 -32 -8 -47 -5 -23 -2 -28 15 -28 11 0 36 10 55 21 26 16 37 19
46 10 6 -6 20 -11 32 -12 16 0 14 -3 -10 -14 -16 -7 -47 -20 -68 -27 l-39 -15
29 -18 c20 -14 43 -19 81 -17 l52 2 -20 -28 c-15 -20 -20 -40 -18 -67 3 -35 1
-39 -19 -38 -42 2 -43 3 -38 26 5 18 -2 27 -37 50 -54 35 -68 34 -68 -2 0 -16
-3 -37 -7 -47 -5 -14 -10 -12 -33 16 -23 28 -31 32 -54 26 -16 -4 -50 -30 -77
-58 l-49 -51 -82 -7 c-46 -5 -96 -13 -113 -20 -34 -13 -68 -7 -106 20 -58 42
-76 43 -116 4 -20 -20 -45 -38 -56 -40 -23 -4 -47 -23 -47 -37 0 -5 12 -26 27
-45 l26 -35 -52 6 c-50 6 -55 4 -84 -24 -28 -29 -34 -30 -83 -24 -38 4 -55 2
-61 -7 -4 -8 -20 -21 -36 -31 -34 -22 -34 -33 1 -55 19 -12 26 -24 24 -39 -3
-19 -7 -21 -27 -13 -27 10 -32 6 -50 -37 -9 -20 -23 -35 -39 -39 -32 -8 -32
-15 -5 -70 12 -23 19 -48 15 -56 -4 -7 -13 -23 -20 -35 -10 -17 -10 -34 -2
-74 l10 -51 17 40 c19 43 39 63 39 38 0 -18 21 -21 37 -5 7 7 19 5 39 -8 22
-13 30 -27 31 -53 2 -19 8 -57 14 -84 9 -38 9 -50 -1 -56 -23 -14 11 -90 45
-102 6 -2 11 0 12 5 19 60 63 89 108 69 42 -19 41 -49 -3 -93 -38 -36 -45 -51
-56 -120 -2 -14 -18 -47 -35 -74 -17 -27 -31 -52 -31 -56 0 -4 14 -12 31 -19
28 -12 31 -17 26 -47 -6 -32 -5 -33 21 -27 35 8 50 23 55 52 2 13 18 32 35 42
18 11 32 28 32 39 0 29 30 47 88 50 8 1 10 9 6 26 -4 18 -2 25 9 25 8 0 18 -7
21 -16 5 -12 16 -15 46 -12 22 2 40 2 40 1 0 -1 -13 -9 -30 -18 -36 -18 -38
-30 -7 -39 20 -6 19 -8 -20 -33 -50 -33 -55 -47 -37 -99 8 -21 14 -42 14 -45
0 -3 -34 -14 -75 -24 -49 -11 -75 -22 -75 -31 0 -9 12 -14 35 -14 33 0 35 -2
35 -35 0 -41 29 -75 63 -75 33 0 138 29 156 43 9 7 1 -5 -16 -26 -18 -20 -40
-51 -48 -68 -14 -27 -21 -30 -53 -27 l-37 3 2 -50 2 -50 -20 24 c-13 16 -19
18 -19 8 0 -8 -3 -29 -6 -46 l-7 -31 64 6 c34 3 80 14 100 25 21 10 46 19 54
19 11 0 25 19 38 50 22 51 40 60 60 29 20 -31 -14 -71 -108 -129 -50 -30 -117
-82 -149 -114 l-60 -60 32 -8 c55 -14 38 -37 -29 -41 -19 -1 -37 -6 -40 -10
-9 -13 -1 -169 18 -332 3 -27 6 -51 7 -52 0 0 30 16 65 38 60 36 175 149 213
210 10 15 33 30 59 38 24 7 60 21 79 31 26 13 51 17 90 14 128 -10 130 -9 205
61 22 20 52 43 66 50 24 13 27 12 38 -11 6 -14 11 -34 11 -45 0 -41 19 -59 59
-59 43 0 56 -11 65 -55 7 -36 3 -42 -49 -80 -98 -71 -111 -95 -79 -156 23 -45
70 -61 182 -60 57 1 101 6 109 13 8 6 26 31 40 55 13 24 29 43 34 43 5 0 9
-25 9 -55 0 -55 0 -55 28 -49 15 4 66 24 114 44 l87 38 33 -24 c17 -13 45 -24
61 -24 17 0 53 -14 81 -32 45 -28 59 -32 121 -31 87 2 196 24 259 53 61 29 80
65 71 131 -7 52 -6 54 48 63 21 4 36 -3 61 -25 19 -16 45 -29 59 -29 23 0 56
22 58 38 3 29 10 46 23 61 13 14 14 24 5 49 -6 18 -14 30 -17 28 -4 -2 -18 0
-31 5 -17 7 -21 13 -13 22 5 6 28 48 50 92 23 44 54 93 70 108 32 31 101 52
135 41 16 -5 19 -3 14 10 -4 9 -10 23 -13 31 -4 9 3 19 20 26 25 12 42 50 47
104 5 54 -1 65 -57 96 l-56 32 7 46 c4 25 11 51 17 58 7 8 -3 18 -34 34 -24
12 -45 25 -48 29 -10 14 -50 18 -87 9 -71 -18 -124 -21 -138 -9 -12 10 -12 17
1 48 8 20 21 43 28 52 14 15 14 23 1 71 -5 21 -2 27 20 37 l25 12 -27 41 c-31
47 -24 72 21 77 17 2 31 12 38 27 6 15 16 21 28 18 13 -3 32 14 68 63 l51 67
-20 39 c-22 44 -18 63 11 48 34 -18 41 -11 23 23 -11 19 -16 48 -14 73 2 38
-1 44 -50 88 -76 69 -86 72 -94 36 -7 -32 -17 -38 -32 -17 -13 17 -11 36 5 46
8 5 13 10 11 12 -1 2 1 14 5 25 4 14 25 29 62 43 31 11 64 31 75 44 20 25 25
62 8 73 -6 3 -16 19 -23 35 l-12 30 -48 -48 c-45 -46 -48 -47 -62 -29 -8 11
-14 35 -14 53 0 26 -5 36 -22 42 -24 9 -77 58 -79 72 -1 5 -3 14 -4 19 -1 6
-3 24 -4 40 0 17 -6 30 -14 30 -20 0 -67 53 -67 76 0 26 -11 40 -38 49 -19 5
-23 13 -20 38 3 27 8 33 35 37 41 6 94 67 116 133 18 52 14 77 -12 78 -9 0
-25 2 -36 5 -38 8 -160 8 -184 0 -19 -7 -23 -5 -18 7 4 10 -3 21 -18 31 -14 9
-43 42 -66 74 -24 31 -50 62 -58 67 -40 26 -135 76 -150 79 -9 2 -24 6 -34 11
-23 10 -45 -10 -68 -60 -12 -28 -18 -34 -18 -19 -1 11 -4 24 -8 28 -5 4 -12
25 -18 47 l-10 39 -37 -20 c-41 -21 -50 -11 -23 24 8 11 15 28 15 38 0 24 -26
23 -33 -1z"/>
</g>
</svg>
